<?xml version="1.0" encoding="utf-8"?>
<svg viewBox="-0.0004 -0.0002 15.9999 16.0002" width="15.9999px" height="16.0002px" xmlns="http://www.w3.org/2000/svg"><path d="M 15.788 0.037 C 15.647 -0.031 15.479 -0.004 15.367 0.104 C 14.508 0.928 13.028 2.145 10.855 3.269 C 10.76 3.318 10.691 3.405 10.664 3.509 C 10.487 4.208 10.139 4.972 9.63 5.778 L 9.423 6.107 L 9.809 4.426 C 9.841 4.289 9.793 4.146 9.685 4.056 C 9.577 3.966 9.428 3.944 9.298 3.999 L 9.254 4.018 C 4.87 5.862 3.574 8.718 3.192 10.256 C 3.059 10.79 2.993 11.319 2.996 11.828 C 2.996 12.024 3.007 12.212 3.029 12.387 L 0.107 15.364 C -0.035 15.508 -0.036 15.738 0.103 15.884 C 0.177 15.961 0.275 16 0.374 16 C 0.463 16 0.552 15.968 0.623 15.905 L 8.652 8.699 C 8.691 8.701 4.08 13.528 4.122 13.528 C 4.748 13.528 5.612 13.24 6.622 12.694 C 7.984 11.959 9.505 10.831 11.022 9.432 C 11.147 9.317 11.178 9.133 11.099 8.983 C 11.02 8.833 10.85 8.755 10.685 8.793 L 9.745 9.009 L 10.073 8.802 C 10.99 8.224 11.847 7.856 12.621 7.707 C 12.705 7.691 12.78 7.646 12.835 7.582 C 14.655 5.438 15.426 3.319 15.751 1.92 C 15.87 1.411 15.953 0.902 15.998 0.408 C 16.012 0.252 15.929 0.104 15.788 0.037 Z" id="object-0"/></svg>