<?xml version="1.0" encoding="utf-8"?>
<svg viewBox="44.5106 20.345 16 16" width="16px" height="16px" fill="#ffffffde" xmlns="http://www.w3.org/2000/svg"><path d="M 45.077 36.136 C 45.053 36.271 44.908 36.364 44.751 36.342 C 44.596 36.321 44.49 36.193 44.514 36.057 C 45.226 32.151 46.886 28.888 49.494 26.269 C 52.098 23.651 55.646 21.681 60.135 20.358 C 60.284 20.314 60.446 20.385 60.495 20.516 C 60.522 20.584 60.513 20.656 60.476 20.714 C 59.588 22.122 58.671 23.436 57.727 24.657 C 56.785 25.875 55.812 27.002 54.81 28.039 C 54.426 28.434 54.05 28.798 53.682 29.134 C 53.313 29.469 52.954 29.775 52.607 30.053 C 52.511 30.13 52.374 30.139 52.268 30.085 L 52.202 30.051 L 52.188 30.042 L 51.134 29.5 L 51.759 30.427 C 51.833 30.536 51.799 30.676 51.687 30.751 C 50.436 31.648 49.326 32.238 48.366 32.748 C 47.03 33.458 45.991 34.01 45.314 35.011 C 45.226 35.38 45.148 35.754 45.077 36.136"/></svg>